<svg xmlns="http://www.w3.org/2000/svg" version="1.1" xmlns:xlink="http://www.w3.org/1999/xlink" xmlns:svgjs="http://svgjs.dev/svgjs" width="1000" height="514" viewBox="0 0 1000 514"><g transform="matrix(1,0,0,1,0.5300173722685599,0)"><svg viewBox="0 0 389 200" data-background-color="#ffffff" preserveAspectRatio="xMidYMid meet" height="514" width="1000" xmlns="http://www.w3.org/2000/svg" xmlns:xlink="http://www.w3.org/1999/xlink"><g id="tight-bounds" transform="matrix(1,0,0,1,-0.20617675781247158,0)"><svg viewBox="0 0 389.4123510992353 200" height="200" width="389.4123510992353"><g><svg viewBox="0 0 475.85169103343765 244.3947603049574" height="200" width="389.4123510992353"><g><rect width="8.272958143591385" height="244.3947603049574" x="183.70618978338464" y="0" fill="#ffffff" opacity="1" stroke-width="0" stroke="transparent" fill-opacity="1" class="rect-o-0" data-fill-palette-color="primary" rx="1%" id="o-0" data-palette-color="#ffffff"></rect></g><g transform="matrix(1,0,0,1,213.63610641805295,0.6079471649376984)"><svg viewBox="0 0 262.21558461538467 243.178865975082" height="243.178865975082" width="262.21558461538467"><g id="textblocktransform"><svg viewBox="0 0 262.21558461538467 243.178865975082" height="243.178865975082" width="262.21558461538467" id="textblock"><g><svg viewBox="0 0 262.21558461538467 198.764" height="198.764" width="262.21558461538467"><g transform="matrix(1,0,0,1,0,0)"><svg width="262.21558461538467" viewBox="1.0999996662139893 -35 102.9000015258789 74.5" height="198.764" data-palette-color="#ffffff"><svg></svg><svg></svg><g class="wordmark-text-0" data-fill-palette-color="primary" id="text-0"><path xmlns="http://www.w3.org/2000/svg" d="M2.05 0v-35h5.5v14.75l7-14.75h5.5l-6.55 12.85 6.65 22.15h-5.75l-4.65-15.6-2.2 4.45v11.15zM22.75 0v-35h15v5h-9.5v9.25h7.55v5h-7.55v10.75h9.5v5z" fill="#ffffff" fill-rule="nonzero" stroke="none" stroke-width="1" stroke-linecap="butt" stroke-linejoin="miter" stroke-miterlimit="10" stroke-dasharray="" stroke-dashoffset="0" font-family="none" font-weight="none" font-size="none" text-anchor="none" style="mix-blend-mode: normal" data-fill-palette-color="primary" opacity="1"></path><path xmlns="http://www.w3.org/2000/svg" d="M9.2 39.5c-2.667 0-4.683-0.76-6.05-2.28-1.367-1.513-2.05-3.687-2.05-6.52v0-2h5.2v2.4c0 2.267 0.95 3.4 2.85 3.4v0c0.933 0 1.643-0.277 2.13-0.83 0.48-0.547 0.72-1.437 0.72-2.67v0c0-1.467-0.333-2.76-1-3.88-0.667-1.113-1.9-2.453-3.7-4.02v0c-2.267-2-3.85-3.81-4.75-5.43-0.9-1.613-1.35-3.437-1.35-5.47v0c0-2.767 0.7-4.91 2.1-6.43 1.4-1.513 3.433-2.27 6.1-2.27v0c2.633 0 4.627 0.757 5.98 2.27 1.347 1.52 2.02 3.697 2.02 6.53v0 1.45h-5.2v-1.8c0-1.2-0.233-2.077-0.7-2.63-0.467-0.547-1.15-0.82-2.05-0.82v0c-1.833 0-2.75 1.117-2.75 3.35v0c0 1.267 0.343 2.45 1.03 3.55 0.68 1.1 1.92 2.433 3.72 4v0c2.3 2 3.883 3.817 4.75 5.45 0.867 1.633 1.3 3.55 1.3 5.75v0c0 2.867-0.707 5.067-2.12 6.6-1.42 1.533-3.48 2.3-6.18 2.3zM28.6 39.5c-2.7 0-4.767-0.767-6.2-2.3-1.433-1.533-2.15-3.7-2.15-6.5v0-18.4c0-2.8 0.717-4.967 2.15-6.5 1.433-1.533 3.5-2.3 6.2-2.3v0c2.7 0 4.767 0.767 6.2 2.3 1.433 1.533 2.15 3.7 2.15 6.5v0 18.4c0 2.8-0.717 4.967-2.15 6.5-1.433 1.533-3.5 2.3-6.2 2.3zM28.6 34.5c1.9 0 2.85-1.15 2.85-3.45v0-19.1c0-2.3-0.95-3.45-2.85-3.45v0c-1.9 0-2.85 1.15-2.85 3.45v0 19.1c0 2.3 0.95 3.45 2.85 3.45zM48.4 39.5c-2.633 0-4.64-0.75-6.02-2.25-1.387-1.5-2.08-3.617-2.08-6.35v0-18.8c0-2.733 0.693-4.85 2.08-6.35 1.38-1.5 3.387-2.25 6.02-2.25v0c2.633 0 4.643 0.75 6.03 2.25 1.38 1.5 2.07 3.617 2.07 6.35v0 3.7h-5.2v-4.05c0-2.167-0.917-3.25-2.75-3.25v0c-1.833 0-2.75 1.083-2.75 3.25v0 19.55c0 2.133 0.917 3.2 2.75 3.2v0c1.833 0 2.75-1.067 2.75-3.2v0-5.35h5.2v4.95c0 2.733-0.69 4.85-2.07 6.35-1.387 1.5-3.397 2.25-6.03 2.25zM59.8 39v-35h5.5v35zM67.95 39l5.7-35h7.45l5.7 35h-5.5l-1-6.95v0.1h-6.25l-1 6.85zM74.7 27.4h4.95l-2.45-17.3h-0.1zM89.45 39v-35h5.5v30h9.05v5z" fill="#ffffff" fill-rule="nonzero" stroke="none" stroke-width="1" stroke-linecap="butt" stroke-linejoin="miter" stroke-miterlimit="10" stroke-dasharray="" stroke-dashoffset="0" font-family="none" font-weight="none" font-size="none" text-anchor="none" style="mix-blend-mode: normal" data-fill-palette-color="primary" opacity="1"></path></g></svg></g></svg></g><g transform="matrix(1,0,0,1,0,220.42095849107693)"><svg viewBox="0 0 153.94676972769233 22.757907484005077" height="22.757907484005077" width="153.94676972769233"><g transform="matrix(1,0,0,1,0,0)"><svg width="153.94676972769233" viewBox="2.9800000190734863 -37.70000076293945 272.5799865722656 40.30666732788086" height="22.757907484005077" data-palette-color="url(#f52f9974-519c-4263-b920-7607e03db669)"></svg></g></svg></g></svg></g></svg></g><g transform="matrix(1,0,0,1,0,28.416472460961728)"><svg viewBox="0 0 162.04923129230772 187.56181538303395" height="187.56181538303395" width="162.04923129230772"><g><svg xmlns="http://www.w3.org/2000/svg" xmlns:xlink="http://www.w3.org/1999/xlink" version="1.1" x="0" y="0" viewBox="11.121000289916992 5 77.75799560546875 90" enable-background="new 0 0 100 100" xml:space="preserve" height="187.56181538303395" width="162.04923129230772" class="icon-icon-0" data-fill-palette-color="accent" id="icon-0"></svg></g></svg></g></svg></g><defs></defs><mask id="4d06edcb-c109-43c7-ac85-b83f2cbe3630"><g id="SvgjsG1099"><svg viewBox="0 0 389.4123510992353 200" height="200" width="389.4123510992353"><g><svg viewBox="0 0 475.85169103343765 244.3947603049574" height="200" width="389.4123510992353"><g></g><g transform="matrix(1,0,0,1,213.63610641805295,0.6079471649376984)"><svg viewBox="0 0 262.21558461538467 243.178865975082" height="243.178865975082" width="262.21558461538467"><g id="SvgjsG1097"><svg viewBox="0 0 262.21558461538467 243.178865975082" height="243.178865975082" width="262.21558461538467" id="SvgjsSvg1096"><g><svg viewBox="0 0 262.21558461538467 198.764" height="198.764" width="262.21558461538467"><g transform="matrix(1,0,0,1,0,0)"><svg width="262.21558461538467" viewBox="1.0999996662139893 -35 102.9000015258789 74.5" height="198.764" data-palette-color="#ffffff"><svg></svg><svg></svg><g class="wordmark-text-0" data-fill-palette-color="primary" id="SvgjsG1095"></g></svg></g></svg></g><g transform="matrix(1,0,0,1,0,220.42095849107693)"><svg viewBox="0 0 153.94676972769233 22.757907484005077" height="22.757907484005077" width="153.94676972769233"><g transform="matrix(1,0,0,1,0,0)"><svg width="153.94676972769233" viewBox="2.9800000190734863 -37.70000076293945 272.5799865722656 40.30666732788086" height="22.757907484005077" data-palette-color="url(#f52f9974-519c-4263-b920-7607e03db669)"><path d="M23.34-36.28L23.83-36.13Q24.41-36.28 24.66-36.25 24.9-36.23 25.15-36.18L25.15-36.18Q25.44-35.99 25.63-35.69L25.63-35.69Q25.63-34.67 25.61-33.67 25.59-32.67 25.59-31.64L25.59-31.64Q25.59-29.79 25.63-27.93 25.68-26.07 25.63-24.22L25.63-24.22Q25.73-23.78 25.68-23.73 25.63-23.68 25.63-23.58L25.63-23.58Q25.63-21.73 25.73-19.92 25.83-18.12 25.83-16.26L25.83-16.26 25.83-9.77Q25.83-7.67 25.95-5.62 26.07-3.56 26.07-1.51L26.07-1.51Q26.07-1.32 25.83-0.98L25.83-0.98Q25.73-0.59 25.54-0.34L25.54-0.34Q25.1-0.29 24.71-0.49L24.71-0.49Q24.51-0.49 24.44-0.37 24.37-0.24 24.22-0.15L24.22-0.15Q23.83-0.15 23.58 0.05 23.34 0.24 23 0.24L23 0.24Q22.71 0.24 22.44 0.17 22.17 0.1 21.83 0.1L21.83 0.1Q21.73 0.1 21.53 0.27 21.34 0.44 21.24 0.49L21.24 0.49Q21 0.49 20.8 0.56 20.61 0.63 20.36 0.63L20.36 0.63Q20.12 0.44 20.14 0.05 20.17-0.34 19.82-0.44L19.82-0.44Q19.82-0.68 19.85-0.98 19.87-1.27 19.87-1.56L19.87-1.56Q19.87-3.47 19.78-5.4 19.68-7.32 19.63-9.23L19.63-9.23Q19.58-10.06 19.6-10.86 19.63-11.67 19.63-12.5L19.63-12.5Q19.63-12.94 19.63-13.38 19.63-13.82 19.53-14.21L19.53-14.21Q19.24-14.26 19.02-14.14 18.8-14.01 18.55-14.01L18.55-14.01Q17.53-13.67 17.19-13.33L17.19-13.33Q16.89-13.33 16.7-13.23 16.5-13.13 16.26-13.04L16.26-13.04Q15.87-12.94 15.5-12.87 15.14-12.79 14.75-12.65L14.75-12.65Q14.5-12.55 14.26-12.45 14.01-12.35 13.77-12.26L13.77-12.26Q13.23-12.06 12.7-11.89 12.16-11.72 11.62-11.52L11.62-11.52Q11.08-11.43 10.69-11.23 10.3-11.04 9.91-10.84L9.91-10.84Q9.57-8.54 9.55-6.47 9.52-4.39 9.67-2.34L9.67-2.34Q9.57-2.05 9.57-1.68 9.57-1.32 9.42-1.07L9.42-1.07Q8.89-0.93 8.72-1.05 8.54-1.17 8.35-1.27L8.35-1.27Q8.15-1.22 8.03-1.07 7.91-0.93 7.81-0.83L7.81-0.83Q7.42-0.83 7.2-0.66 6.98-0.49 6.79-0.39L6.79-0.39Q6.64-0.34 6.49-0.39 6.35-0.44 6.15-0.34L6.15-0.34Q5.66-0.34 5.69-0.46 5.71-0.59 5.57-0.59L5.57-0.59Q5.37-0.59 5.3-0.42 5.22-0.24 5.03-0.15L5.03-0.15Q4.83-0.05 4.59-0.02 4.35 0 4.1 0.1L4.1 0.1Q3.86-0.15 3.86-0.44 3.86-0.73 3.61-0.98L3.61-0.98Q3.52-1.66 3.49-2.32 3.47-2.98 3.32-3.66L3.32-3.66Q3.42-5.03 3.39-5.86 3.37-6.69 3.37-7.57L3.37-7.57Q3.37-8.35 3.32-9.13 3.27-9.91 3.22-10.69L3.22-10.69Q3.13-12.11 3.05-13.57 2.98-15.04 2.98-16.5L2.98-16.5Q2.98-17.72 3.1-18.9 3.22-20.07 3.22-21.29L3.22-21.29Q3.22-22.12 3.25-22.92 3.27-23.73 3.27-24.56L3.27-24.56Q3.27-25.24 3.25-25.9 3.22-26.56 3.22-27.2L3.22-27.2Q3.22-27.93 3.32-28.64 3.42-29.35 3.42-30.03L3.42-30.03Q3.42-30.86 3.32-31.67 3.22-32.47 3.22-33.3L3.22-33.3Q3.22-33.54 3.27-33.76 3.32-33.98 3.32-34.23L3.32-34.23Q3.27-34.77 3.37-34.89 3.47-35.01 3.56-35.21L3.56-35.21Q3.81-35.25 4.1-35.35 4.39-35.45 4.64-35.35L4.64-35.35Q4.93-35.64 5.44-35.64 5.96-35.64 6.2-35.99L6.2-35.99Q6.54-35.94 6.67-35.96 6.79-35.99 6.88-35.99L6.88-35.99Q7.32-35.89 7.35-36.01 7.37-36.13 7.52-36.13L7.52-36.13Q7.76-36.13 8.28-36.11 8.79-36.08 8.98-35.89L8.98-35.89Q9.47-33.3 9.52-30.62 9.57-27.93 9.57-25.29L9.57-25.29Q9.57-24.61 9.62-23.9 9.67-23.19 9.57-22.51L9.57-22.51Q9.57-22.22 9.52-21.95 9.47-21.68 9.47-21.39L9.47-21.39Q9.47-20.56 9.38-19.65 9.28-18.75 9.28-17.92L9.28-17.92Q9.86-17.58 10.28-17.7 10.69-17.82 11.08-17.97L11.08-17.97Q11.57-18.12 11.99-18.29 12.4-18.46 12.84-18.6L12.84-18.6Q13.23-18.8 13.7-18.92 14.16-19.04 14.55-19.14L14.55-19.14Q15.82-19.58 17.04-20.21 18.26-20.85 19.53-21.24L19.53-21.24Q19.43-23.93 19.43-26.59 19.43-29.25 19.43-31.88L19.43-31.88Q19.43-32.62 19.43-33.4 19.43-34.18 19.53-34.91L19.53-34.91Q19.58-35.11 19.65-35.23 19.73-35.35 19.73-35.6L19.73-35.6Q19.87-35.84 20.07-35.94 20.26-36.04 20.36-36.23L20.36-36.23Q20.46-36.13 20.58-36.06 20.7-35.99 20.85-35.94L20.85-35.94Q21.24-36.04 21.31-36.08 21.39-36.13 21.48-36.18L21.48-36.18Q21.73-36.28 22.12-36.28 22.51-36.28 22.75-36.28L22.75-36.28 23.34-36.28ZM41.79-37.01L41.89-36.96Q42.14-36.08 42.38-35.23 42.62-34.38 42.97-33.54L42.97-33.54Q43.7-33.45 43.87-33.4 44.04-33.35 44.28-33.25L44.28-33.25Q44.82-31.98 44.94-30.54 45.07-29.1 45.31-27.73L45.31-27.73Q46.24-26.51 46.65-25.12 47.07-23.73 47.6-22.31L47.6-22.31Q47.75-21.83 47.8-21.7 47.85-21.58 47.85-21.48L47.85-21.48Q48.14-20.65 48.44-19.78 48.73-18.9 49.07-18.07L49.07-18.07Q49.22-17.63 49.39-17.21 49.56-16.8 49.7-16.41L49.7-16.41Q49.85-15.92 49.97-15.41 50.1-14.89 50.24-14.4L50.24-14.4Q50.58-13.43 50.97-12.45 51.36-11.47 51.76-10.5L51.76-10.5Q51.9-10.16 52.32-8.98 52.73-7.81 53.17-6.52 53.61-5.22 53.98-4.13 54.34-3.03 54.34-2.78L54.34-2.78Q54.34-2.39 54.42-1.98 54.49-1.56 54.54-1.12L54.54-1.12Q54.34-0.63 54.05-0.59 53.76-0.54 53.51-0.63L53.51-0.63Q53.27-0.54 53.05-0.44 52.83-0.34 52.63-0.24L52.63-0.24Q52.49-0.2 52.39-0.1 52.29 0 52.15 0L52.15 0Q51.56 0 51.39 0.12 51.22 0.24 50.88 0.24L50.88 0.24Q50.44 0.1 50.31 0.22 50.19 0.34 50.1 0.39L50.1 0.39Q49.9 0.49 49.66 0.49 49.41 0.49 49.17 0.54L49.17 0.54Q49.07 0.34 49 0.15 48.92-0.05 48.78-0.29L48.78-0.29Q48.24-1.07 48.02-1.81 47.8-2.54 47.65-2.98L47.65-2.98Q47.41-3.52 47.24-4.05 47.07-4.59 46.82-5.13L46.82-5.13Q46.53-5.03 46.29-4.91 46.04-4.79 45.9-4.59L45.9-4.59Q45.31-4.59 45.31-4.44 45.31-4.3 45.21-4.15L45.21-4.15Q44.92-4.05 44.75-3.96 44.58-3.86 44.19-3.91L44.19-3.91Q43.94-3.66 43.7-3.49 43.45-3.32 43.06-3.27L43.06-3.27Q42.67-2.88 42.26-2.61 41.84-2.34 41.31-2.49L41.31-2.49Q40.62-2.34 39.94-2.22 39.26-2.1 38.57-2.1L38.57-2.1Q37.79-2.34 37.6-2.54 37.4-2.73 37.01-2.73L37.01-2.73Q37.06-3.42 36.72-3.66L36.72-3.66Q36.72-3.81 36.74-4.13 36.77-4.44 36.86-4.54L36.86-4.54Q37.5-4.83 37.6-5.18 37.69-5.52 38.13-5.62L38.13-5.62Q38.23-5.81 38.35-5.98 38.47-6.15 38.57-6.35L38.57-6.35Q38.82-6.45 38.99-6.49 39.16-6.54 39.26-6.79L39.26-6.79Q39.5-6.79 39.99-7.1 40.48-7.42 40.62-7.62L40.62-7.62Q41.01-7.76 41.11-7.89 41.21-8.01 41.35-8.11L41.35-8.11Q41.84-8.06 41.99-8.2L41.99-8.2Q42.38-8.01 42.87-8.01L42.87-8.01Q43.06-8.01 43.21-8.03 43.36-8.06 43.55-8.06L43.55-8.06Q43.94-8.45 44.55-8.57 45.16-8.69 45.55-9.08L45.55-9.08Q45.41-9.47 45.31-10.03 45.21-10.6 44.97-10.94L44.97-10.94Q44.87-11.57 44.65-12.16 44.43-12.74 44.28-13.28L44.28-13.28Q43.75-15.33 43.02-17.29 42.28-19.24 41.79-21.29L41.79-21.29Q41.7-21.53 41.57-21.8 41.45-22.07 41.35-22.31L41.35-22.31Q41.11-21.73 41.11-21.66 41.11-21.58 41.01-21.48L41.01-21.48Q40.96-21.24 40.92-21.07 40.87-20.9 40.77-20.65L40.77-20.65Q40.62-20.26 40.5-19.8 40.38-19.34 40.28-18.95L40.28-18.95Q40.04-18.12 39.84-17.21 39.65-16.31 39.4-15.43L39.4-15.43Q38.91-13.92 38.4-12.43 37.89-10.94 37.4-9.42L37.4-9.42Q37.3-8.74 37.18-8.37 37.06-8.01 36.94-7.64 36.81-7.28 36.74-6.93 36.67-6.59 36.67-6.4L36.67-6.4Q35.98-4.83 35.52-3.22 35.06-1.61 34.37-0.1L34.37-0.1Q34.18 0 34.03 0.15 33.88 0.29 33.69 0.29L33.69 0.29Q33.3 0.29 33.27 0.1 33.25-0.1 33.05-0.1L33.05-0.1Q32.86-0.1 32.71-0.02 32.57 0.05 32.42 0.15L32.42 0.15Q32.18 0.05 31.86 0.02 31.54 0 31.39-0.2L31.39-0.2Q31.05 0.05 30.71 0.05L30.71 0.05Q30.32 0.05 29.93-0.2L29.93-0.2Q29.64-0.1 29.34-0.1L29.34-0.1Q29.2-0.1 29-0.15 28.81-0.2 28.71-0.29L28.71-0.29Q28.66-0.49 28.66-0.68 28.66-0.88 28.66-1.12L28.66-1.12Q28.66-1.61 28.56-1.86L28.56-1.86Q29.44-4.35 30.27-6.91 31.1-9.47 31.93-12.11L31.93-12.11Q32.37-13.33 32.79-14.5 33.2-15.67 33.59-16.89L33.59-16.89Q33.79-17.58 33.93-18.19 34.08-18.8 34.32-19.38L34.32-19.38Q34.71-20.65 35.13-21.95 35.54-23.24 35.89-24.51L35.89-24.51Q36.08-24.66 36.13-24.85 36.18-25.05 36.28-25.29L36.28-25.29 36.23-25.93Q36.57-26.42 36.69-26.78 36.81-27.15 36.86-27.54L36.86-27.54Q37.11-28.13 37.3-28.81 37.5-29.49 37.6-30.08L37.6-30.08Q37.69-30.86 37.72-31.86 37.74-32.86 37.99-33.54L37.99-33.54Q38.08-33.74 38.16-33.81 38.23-33.89 38.23-34.13L38.23-34.13Q38.33-34.23 38.45-34.35 38.57-34.47 38.62-34.62L38.62-34.62Q38.86-35.01 38.79-35.3 38.72-35.6 38.72-35.94L38.72-35.94Q39.16-36.18 39.11-36.38 39.06-36.57 39.06-36.77L39.06-36.77Q39.06-37.01 39.38-37.23 39.69-37.45 39.79-37.7L39.79-37.7Q40.09-37.65 40.38-37.62 40.67-37.6 40.96-37.65L40.96-37.65Q41.31-37.01 41.79-37.01L41.79-37.01ZM61.23-35.5L61.23-35.5Q61.42-35.55 61.57-35.64 61.71-35.74 61.91-35.74L61.91-35.74Q62.06-35.69 62.13-35.55 62.2-35.4 62.35-35.3L62.35-35.3Q62.5-35.4 62.62-35.5 62.74-35.6 62.89-35.64L62.89-35.64Q63.37-35.5 63.42-35.16L63.42-35.16Q63.67-35.06 63.86-34.94 64.06-34.81 64.3-34.77L64.3-34.77Q64.4-34.57 64.55-34.47 64.69-34.38 64.89-34.18L64.89-34.18Q65.38-34.08 66.18-33.64 66.99-33.2 67.48-32.96L67.48-32.96Q67.96-32.71 68.45-32.47 68.94-32.23 69.38-31.93L69.38-31.93Q69.82-31.69 70.26-31.37 70.7-31.05 71.19-30.86L71.19-30.86Q71.63-30.32 72.31-30.18 72.99-30.03 73.53-29.64L73.53-29.64Q73.97-29.39 74.36-29.13 74.75-28.86 75.14-28.61L75.14-28.61Q75.29-28.37 75.51-28.22 75.73-28.08 75.92-27.83L75.92-27.83Q76.9-27.29 77.05-27L77.05-27Q77.19-26.9 77.49-26.71 77.78-26.51 78.07-26.29 78.36-26.07 78.61-25.85 78.85-25.63 78.9-25.44L78.9-25.44Q78.71-25 78.71-24.73 78.71-24.46 78.51-24.27L78.51-24.27Q78.8-23.88 78.8-23.54L78.8-23.54Q78.56-22.95 77.97-22.56L77.97-22.56Q77.83-22.17 77.51-21.95 77.19-21.73 77.09-21.34L77.09-21.34Q76.7-21.09 76.63-20.95 76.56-20.8 76.46-20.65L76.46-20.65Q75.53-19.68 74.73-18.97 73.92-18.26 73.24-17.43L73.24-17.43Q72.75-17.19 72.41-16.82 72.07-16.46 71.77-16.02L71.77-16.02Q71.38-15.63 71.02-15.26 70.65-14.89 70.26-14.55L70.26-14.55Q70.16-14.36 69.94-14.23 69.72-14.11 69.62-13.87L69.62-13.87Q69.09-13.62 68.75-13.18 68.4-12.74 67.91-12.45L67.91-12.45 67.57-11.96Q67.43-11.87 67.16-11.65 66.89-11.43 66.62-11.16 66.35-10.89 66.16-10.64 65.96-10.4 65.91-10.25L65.91-10.25Q65.77-10.21 65.45-9.96 65.13-9.72 64.81-9.42 64.5-9.13 64.23-8.84 63.96-8.54 63.91-8.45L63.91-8.45 63.42-8.11Q63.47-6.79 63.5-5.44 63.52-4.1 63.52-2.78L63.52-2.78 63.52-1.12 63.18-0.68Q62.93-0.68 62.79-0.78 62.64-0.88 62.45-0.88L62.45-0.88Q62.25-0.88 62.08-0.68 61.91-0.49 61.76-0.39L61.76-0.39Q61.42-0.34 61.2-0.22 60.98-0.1 60.74 0L60.74 0Q60.44-0.15 60.15-0.15L60.15-0.15Q59.52 0 59.54-0.1 59.57-0.2 59.32-0.2L59.32-0.2Q58.93 0.2 58.83 0.2L58.83 0.2Q58.64 0.2 58.47 0.24 58.3 0.29 58.1 0.29L58.1 0.29Q57.91-0.1 57.78-0.51 57.66-0.93 57.32-1.32L57.32-1.32Q57.47-1.81 57.27-2L57.27-2Q57.56-2.54 57.51-3.22 57.47-3.91 57.47-4.49L57.47-4.49Q57.47-4.83 57.49-5.15 57.51-5.47 57.51-5.76L57.51-5.76Q57.51-6.35 57.42-6.96 57.32-7.57 57.32-8.2L57.32-8.2Q57.32-9.67 57.42-11.16 57.51-12.65 57.51-14.11L57.51-14.11Q57.51-14.94 57.44-15.82 57.37-16.7 57.37-17.53L57.37-17.53Q57.37-18.07 57.42-18.53 57.47-18.99 57.51-19.43L57.51-19.43Q57.51-21.68 57.59-23.75 57.66-25.83 57.66-27.88L57.66-27.88Q57.66-28.56 57.64-29.17 57.61-29.79 57.61-30.47L57.61-30.47Q57.61-30.81 57.66-31.15 57.71-31.49 57.71-31.84L57.71-31.84Q57.86-33.35 57.86-34.86L57.86-34.86 57.81-35.64Q58-35.94 58.39-35.94L58.39-35.94Q58.93-35.94 59.22-35.6L59.22-35.6Q59.57-35.64 59.88-35.72 60.2-35.79 60.49-35.79L60.49-35.79Q60.93-35.79 61.23-35.5ZM64.2-27.88L64.11-27.73Q64.11-27.49 64.06-27.37 64.01-27.25 63.96-27.15L63.96-27.15Q63.96-27 63.98-26.83 64.01-26.66 64.01-26.46L64.01-26.46Q64.01-25.34 63.98-24.24 63.96-23.14 63.96-22.07L63.96-22.07 63.86-19.48Q63.86-19.24 63.91-18.95 63.96-18.65 63.96-18.41L63.96-18.41Q63.96-18.16 63.91-17.92 63.86-17.68 63.86-17.43L63.86-17.43Q63.86-16.8 64.01-16.16L64.01-16.16Q64.25-16.26 64.35-16.48 64.45-16.7 64.59-16.85L64.59-16.85Q65.72-17.87 66.69-18.99 67.67-20.12 68.7-21.24L68.7-21.24Q69.58-22.17 70.21-22.75 70.84-23.34 71.19-24.17L71.19-24.17Q70.36-24.71 69.48-25.27 68.6-25.83 67.62-26.22L67.62-26.22Q67.57-26.32 67.35-26.46 67.13-26.61 66.89-26.73 66.65-26.86 66.4-26.95 66.16-27.05 66.06-27.05L66.06-27.05Q65.62-27.44 65.13-27.54L65.13-27.54Q64.79-27.54 64.55-27.66 64.3-27.78 64.2-27.88L64.2-27.88ZM91.4-37.01L91.5-36.96Q91.74-36.08 91.98-35.23 92.23-34.38 92.57-33.54L92.57-33.54Q93.3-33.45 93.47-33.4 93.64-33.35 93.89-33.25L93.89-33.25Q94.43-31.98 94.55-30.54 94.67-29.1 94.91-27.73L94.91-27.73Q95.84-26.51 96.26-25.12 96.67-23.73 97.21-22.31L97.21-22.31Q97.36-21.83 97.4-21.7 97.45-21.58 97.45-21.48L97.45-21.48Q97.75-20.65 98.04-19.78 98.33-18.9 98.67-18.07L98.67-18.07Q98.82-17.63 98.99-17.21 99.16-16.8 99.31-16.41L99.31-16.41Q99.46-15.92 99.58-15.41 99.7-14.89 99.85-14.4L99.85-14.4Q100.19-13.43 100.58-12.45 100.97-11.47 101.36-10.5L101.36-10.5Q101.51-10.16 101.92-8.98 102.34-7.81 102.78-6.52 103.22-5.22 103.58-4.13 103.95-3.03 103.95-2.78L103.95-2.78Q103.95-2.39 104.02-1.98 104.09-1.56 104.14-1.12L104.14-1.12Q103.95-0.63 103.65-0.59 103.36-0.54 103.12-0.63L103.12-0.63Q102.87-0.54 102.65-0.44 102.43-0.34 102.24-0.24L102.24-0.24Q102.09-0.2 101.99-0.1 101.9 0 101.75 0L101.75 0Q101.16 0 100.99 0.12 100.82 0.24 100.48 0.24L100.48 0.24Q100.04 0.1 99.92 0.22 99.8 0.34 99.7 0.39L99.7 0.39Q99.5 0.49 99.26 0.49 99.02 0.49 98.77 0.54L98.77 0.54Q98.67 0.34 98.6 0.15 98.53-0.05 98.38-0.29L98.38-0.29Q97.84-1.07 97.62-1.81 97.4-2.54 97.26-2.98L97.26-2.98Q97.01-3.52 96.84-4.05 96.67-4.59 96.43-5.13L96.43-5.13Q96.14-5.03 95.89-4.91 95.65-4.79 95.5-4.59L95.5-4.59Q94.91-4.59 94.91-4.44 94.91-4.3 94.82-4.15L94.82-4.15Q94.52-4.05 94.35-3.96 94.18-3.86 93.79-3.91L93.79-3.91Q93.55-3.66 93.3-3.49 93.06-3.32 92.67-3.27L92.67-3.27Q92.28-2.88 91.86-2.61 91.45-2.34 90.91-2.49L90.91-2.49Q90.23-2.34 89.54-2.22 88.86-2.1 88.18-2.1L88.18-2.1Q87.39-2.34 87.2-2.54 87-2.73 86.61-2.73L86.61-2.73Q86.66-3.42 86.32-3.66L86.32-3.66Q86.32-3.81 86.35-4.13 86.37-4.44 86.47-4.54L86.47-4.54Q87.1-4.83 87.2-5.18 87.3-5.52 87.74-5.62L87.74-5.62Q87.83-5.81 87.96-5.98 88.08-6.15 88.18-6.35L88.18-6.35Q88.42-6.45 88.59-6.49 88.76-6.54 88.86-6.79L88.86-6.79Q89.1-6.79 89.59-7.1 90.08-7.42 90.23-7.62L90.23-7.62Q90.62-7.76 90.72-7.89 90.81-8.01 90.96-8.11L90.96-8.11Q91.45-8.06 91.59-8.2L91.59-8.2Q91.98-8.01 92.47-8.01L92.47-8.01Q92.67-8.01 92.81-8.03 92.96-8.06 93.16-8.06L93.16-8.06Q93.55-8.45 94.16-8.57 94.77-8.69 95.16-9.08L95.16-9.08Q95.01-9.47 94.91-10.03 94.82-10.6 94.57-10.94L94.57-10.94Q94.47-11.57 94.26-12.16 94.04-12.74 93.89-13.28L93.89-13.28Q93.35-15.33 92.62-17.29 91.89-19.24 91.4-21.29L91.4-21.29Q91.3-21.53 91.18-21.8 91.06-22.07 90.96-22.31L90.96-22.31Q90.72-21.73 90.72-21.66 90.72-21.58 90.62-21.48L90.62-21.48Q90.57-21.24 90.52-21.07 90.47-20.9 90.37-20.65L90.37-20.65Q90.23-20.26 90.1-19.8 89.98-19.34 89.89-18.95L89.89-18.95Q89.64-18.12 89.45-17.21 89.25-16.31 89.01-15.43L89.01-15.43Q88.52-13.92 88.01-12.43 87.49-10.94 87-9.42L87-9.42Q86.91-8.74 86.78-8.37 86.66-8.01 86.54-7.64 86.42-7.28 86.35-6.93 86.27-6.59 86.27-6.4L86.27-6.4Q85.59-4.83 85.12-3.22 84.66-1.61 83.98-0.1L83.98-0.1Q83.78 0 83.64 0.15 83.49 0.29 83.29 0.29L83.29 0.29Q82.9 0.29 82.88 0.1 82.85-0.1 82.66-0.1L82.66-0.1Q82.46-0.1 82.32-0.02 82.17 0.05 82.02 0.15L82.02 0.15Q81.78 0.05 81.46 0.02 81.14 0 81-0.2L81-0.2Q80.66 0.05 80.31 0.05L80.31 0.05Q79.92 0.05 79.53-0.2L79.53-0.2Q79.24-0.1 78.95-0.1L78.95-0.1Q78.8-0.1 78.61-0.15 78.41-0.2 78.31-0.29L78.31-0.29Q78.26-0.49 78.26-0.68 78.26-0.88 78.26-1.12L78.26-1.12Q78.26-1.61 78.17-1.86L78.17-1.86Q79.05-4.35 79.88-6.91 80.71-9.47 81.54-12.11L81.54-12.11Q81.97-13.33 82.39-14.5 82.81-15.67 83.2-16.89L83.2-16.89Q83.39-17.58 83.54-18.19 83.68-18.8 83.93-19.38L83.93-19.38Q84.32-20.65 84.73-21.95 85.15-23.24 85.49-24.51L85.49-24.51Q85.69-24.66 85.73-24.85 85.78-25.05 85.88-25.29L85.88-25.29 85.83-25.93Q86.17-26.42 86.3-26.78 86.42-27.15 86.47-27.54L86.47-27.54Q86.71-28.13 86.91-28.81 87.1-29.49 87.2-30.08L87.2-30.08Q87.3-30.86 87.32-31.86 87.35-32.86 87.59-33.54L87.59-33.54Q87.69-33.74 87.76-33.81 87.83-33.89 87.83-34.13L87.83-34.13Q87.93-34.23 88.05-34.35 88.18-34.47 88.22-34.62L88.22-34.62Q88.47-35.01 88.4-35.3 88.32-35.6 88.32-35.94L88.32-35.94Q88.76-36.18 88.71-36.38 88.66-36.57 88.66-36.77L88.66-36.77Q88.66-37.01 88.98-37.23 89.3-37.45 89.4-37.7L89.4-37.7Q89.69-37.65 89.98-37.62 90.28-37.6 90.57-37.65L90.57-37.65Q90.91-37.01 91.4-37.01L91.4-37.01ZM140.37-36.43L140.37-36.43Q141.15-36.52 141.56-36.3 141.98-36.08 142.42-36.04L142.42-36.04Q142.66-35.99 142.93-36.01 143.2-36.04 143.49-36.04L143.49-36.04Q144.13-36.04 144.49-35.89 144.86-35.74 145.25-35.25L145.25-35.25Q145.35-35.16 145.52-34.99 145.69-34.81 145.69-34.67L145.69-34.67Q145.69-34.28 145.5-33.98 145.3-33.69 145.3-33.15L145.3-33.15Q145.3-32.32 145.5-31.52 145.69-30.71 145.74-29.88L145.74-29.88Q145.98-26.86 146.01-23.8 146.03-20.75 146.03-17.77L146.03-17.77Q146.03-17.38 146.01-17.07 145.98-16.75 145.79-16.5L145.79-16.5 145.79-15.87Q145.74-14.6 145.84-13.31 145.93-12.01 145.93-10.74L145.93-10.74Q145.93-9.62 145.81-8.5 145.69-7.37 145.69-6.2L145.69-6.2Q145.69-5.13 145.84-4.1 145.98-3.08 145.98-2L145.98-2Q145.74-1.56 145.69-1.32 145.64-1.07 145.5-0.88L145.5-0.88Q145.35-0.78 145.18-0.83 145.01-0.88 144.91-0.73L144.91-0.73Q144.67-0.44 144.57-0.05 144.47 0.34 144.08 0.59L144.08 0.59Q143.98 1.27 143.57 1.64 143.15 2 142.96 2.59L142.96 2.59Q142.37 2.64 142.15 2.54 141.93 2.44 141.69 2.34L141.69 2.34Q141.64 1.51 141.71 1.15 141.78 0.78 141.78 0.39L141.78 0.39Q141.78-0.1 141.54-0.34 141.3-0.59 141.2-0.98L141.2-0.98Q140.66-1.32 140.47-1.44 140.27-1.56 140.12-1.76L140.12-1.76Q139.83-2.15 139.64-2.59 139.44-3.03 139.2-3.42L139.2-3.42Q138.51-4.54 137.8-5.71 137.1-6.88 136.27-8.01L136.27-8.01Q136.12-8.25 135.93-8.45 135.73-8.64 135.58-8.89L135.58-8.89Q134.75-10.21 134.02-11.57 133.29-12.94 132.31-14.16L132.31-14.16Q131.92-14.65 131.73-15.26 131.53-15.87 131.14-16.31L131.14-16.31Q131.09-16.06 131.09-15.77 131.09-15.48 131.09-15.23L131.09-15.23Q131.09-13.57 131.16-11.94 131.24-10.3 131.24-8.64L131.24-8.64Q131.24-8.3 131.16-8.03 131.09-7.76 131.09-7.42L131.09-7.42Q131.09-6.93 131.14-6.49 131.19-6.05 131.19-5.62L131.19-5.62Q131.19-5.08 131.16-4.59 131.14-4.1 131.09-3.61L131.09-3.61Q130.99-2.98 130.85-2.42 130.7-1.86 130.7-1.27L130.7-1.27Q130.7-0.93 130.77-0.63 130.85-0.34 130.85-0.1L130.85-0.1Q130.51 0.44 129.99 0.44 129.48 0.44 129.14 0.83L129.14 0.83Q128.84 0.78 128.67 0.88 128.5 0.98 128.36 0.98L128.36 0.98Q128.16 0.98 128.04 0.93 127.92 0.88 127.77 0.88L127.77 0.88Q127.53 0.88 127.28 1.12 127.04 1.37 126.79 1.37L126.79 1.37Q126.65 1.37 126.28 1.17 125.92 0.98 125.5 0.71 125.09 0.44 124.74 0.17 124.4-0.1 124.4-0.24L124.4-0.24Q124.35-0.49 124.35-0.93L124.35-0.93Q124.35-1.51 124.43-2.08 124.5-2.64 124.6-3.22L124.6-3.22Q124.74-4.88 124.74-6.52 124.74-8.15 124.74-9.81L124.74-9.81Q124.74-10.5 124.77-11.18 124.79-11.87 124.79-12.55L124.79-12.55Q124.79-14.16 124.67-15.8 124.55-17.43 124.55-19.04L124.55-19.04Q124.55-20.17 124.65-21.26 124.74-22.36 124.74-23.44L124.74-23.44Q124.74-24.27 124.69-25.05 124.65-25.83 124.65-26.66L124.65-26.66Q124.6-27.2 124.65-27.81 124.69-28.42 124.69-28.96L124.69-28.96Q124.69-29.59 124.52-30.15 124.35-30.71 124.35-31.2L124.35-31.2Q124.35-31.49 124.47-31.76 124.6-32.03 124.6-32.32L124.6-32.32Q124.6-32.71 124.47-33.11 124.35-33.5 124.35-33.89L124.35-33.89Q124.35-34.28 124.45-34.62 124.55-34.96 124.55-35.35L124.55-35.35Q125.23-35.69 125.77-35.69L125.77-35.69Q126.31-35.69 126.55-35.3L126.55-35.3Q126.55-34.42 126.65-33.96 126.75-33.5 126.79-33.01L126.79-33.01Q126.79-32.71 126.77-32.32 126.75-31.93 126.79-31.57 126.84-31.2 127.01-30.96 127.18-30.71 127.62-30.71L127.62-30.71Q127.72-30.47 127.87-30.27 128.01-30.08 128.06-29.79L128.06-29.79Q128.36-29.98 128.41-30.32 128.45-30.66 128.41-30.96L128.41-30.96Q128.65-30.86 128.84-30.88 129.04-30.91 129.24-30.81L129.24-30.81Q129.33-30.13 129.48-29.61 129.63-29.1 129.58-28.42L129.58-28.42Q130.55-27.69 131.26-26.34 131.97-25 132.6-23.93L132.6-23.93Q132.95-23.39 133.41-22.92 133.87-22.46 134.12-21.83L134.12-21.83Q134.51-21.58 134.75-21.19 135-20.8 135.19-20.41L135.19-20.41Q136.17-18.7 137.34-17.09 138.51-15.48 139.78-13.92L139.78-13.92Q139.83-14.26 139.83-14.58 139.83-14.89 139.83-15.23L139.83-15.23 139.78-19.63Q139.78-20.02 139.76-20.36 139.73-20.7 139.68-21.09L139.68-21.09Q139.59-22.36 139.64-23.58 139.68-24.8 139.64-26.07L139.64-26.07Q139.54-27.39 139.51-28.76 139.49-30.13 139.39-31.49L139.39-31.49Q139.34-32.32 139.29-33.15 139.25-33.98 139.25-34.81L139.25-34.81Q139.25-35.84 139.44-36.67L139.44-36.67Q139.54-36.77 139.66-36.84 139.78-36.91 139.98-36.91L139.98-36.91Q140.27-36.91 140.37-36.43ZM159.7-33.2L159.7-33.2Q159.7-32.76 159.41-32.54 159.12-32.32 158.87-31.98L158.87-31.98Q158.38-31.54 158.02-31.08 157.65-30.62 157.16-30.18L157.16-30.18Q156.97-29.98 156.63-29.66 156.28-29.35 155.92-29.03 155.55-28.71 155.19-28.47 154.82-28.22 154.57-28.22L154.57-28.22Q154.18-28.22 153.57-28.49 152.96-28.76 152.52-28.86L152.52-28.86Q152.18-28.91 151.91-28.93 151.65-28.96 151.4-29.2L151.4-29.2Q150.52-29.39 150.28-29.81 150.03-30.22 149.74-30.66L149.74-30.66Q149.74-30.86 149.89-30.91 150.03-30.96 150.13-31.1L150.13-31.1Q150.62-31.74 150.96-32.15 151.3-32.57 151.74-33.01L151.74-33.01Q152.57-33.74 153.33-34.52 154.09-35.3 154.92-35.99L154.92-35.99Q155.31-36.04 155.5-36.28 155.7-36.52 156.09-36.52L156.09-36.52Q156.48-36.52 156.75-36.28 157.02-36.04 157.24-35.72 157.46-35.4 157.68-35.08 157.9-34.77 158.19-34.62L158.19-34.62Q158.53-34.38 159.12-33.98 159.7-33.59 159.7-33.2ZM153.01-24.12L153.01-24.12Q153.35-23.93 153.53-23.61 153.7-23.29 154.04-23.14L154.04-23.14Q154.33-23 154.67-23 155.01-23 155.26-22.9L155.26-22.9Q155.45-22.8 155.55-22.66 155.65-22.51 155.75-22.36L155.75-22.36Q156.04-22.12 156.65-21.92 157.26-21.73 157.46-21.48L157.46-21.48Q157.8-21.04 157.97-20.36 158.14-19.68 158.24-18.92 158.33-18.16 158.38-17.41 158.43-16.65 158.53-16.11L158.53-16.11Q158.63-14.99 158.77-13.89 158.92-12.79 158.92-11.67L158.92-11.67Q158.92-10.55 158.82-9.38 158.73-8.2 158.73-7.08L158.73-7.08Q158.73-6.49 158.7-5.62 158.68-4.74 158.29-4.25L158.29-4.25Q158.24-4.05 158.24-3.56L158.24-3.56 158.24-2Q158.24-1.71 158.29-1.42 158.33-1.12 158.33-0.78L158.33-0.78Q158.33-0.24 158.04 0L158.04 0Q157.9-0.05 157.72-0.05 157.55-0.05 157.41-0.05L157.41-0.05Q156.87-0.05 156.63 0.15L156.63 0.15Q156.09 0.1 155.6 0.05 155.11 0 154.57 0L154.57 0Q153.74 0 152.77 0.24L152.77 0.24Q152.57-0.24 152.6-0.78 152.62-1.32 152.38-1.76L152.38-1.76Q152.33-1.9 152.3-2.03 152.28-2.15 152.28-2.29L152.28-2.29Q152.43-2.88 152.43-3.1 152.43-3.32 152.43-3.56L152.43-3.56Q152.43-4.25 152.38-4.96 152.33-5.66 152.43-6.35L152.43-6.35Q152.43-6.59 152.5-6.79 152.57-6.98 152.57-7.23L152.57-7.23Q152.57-7.47 152.48-7.57 152.38-7.67 152.38-7.81L152.38-7.81Q152.38-7.96 152.4-8.3 152.43-8.64 152.52-8.74L152.52-8.74Q152.52-9.13 152.55-9.5 152.57-9.86 152.57-10.21L152.57-10.21Q152.57-10.99 152.52-11.77 152.48-12.55 152.48-13.28L152.48-13.28Q152.48-13.62 152.43-13.72 152.38-13.82 152.33-13.87 152.28-13.92 152.18-13.94 152.08-13.96 152.04-14.11L152.04-14.11Q152.23-16.26 151.89-18.41 151.55-20.56 151.55-22.75L151.55-22.75Q151.55-23.1 151.65-23.27 151.74-23.44 151.89-23.54 152.04-23.63 152.16-23.75 152.28-23.88 152.33-24.12L152.33-24.12Q152.72-24.02 153.01-24.12ZM210.62-35.79L210.67-35.99Q210.87-35.64 211.19-35.69 211.5-35.74 211.85-35.64L211.85-35.64 212.38-35.45Q212.68-35.4 212.82-35.33 212.97-35.25 213.11-35.16L213.11-35.16Q213.6-35.21 214.26-34.89 214.92-34.57 215.02-34.42L215.02-34.42Q214.43-32.37 213.82-30.44 213.21-28.52 212.68-26.56L212.68-26.56Q212.53-26.12 212.36-25.46 212.19-24.8 212.02-24.1 211.85-23.39 211.65-22.78 211.45-22.17 211.31-21.83L211.31-21.83 211.06-21.09Q210.19-17.58 209.26-14.14 208.33-10.69 207.21-7.18L207.21-7.18Q206.82-6.05 206.6-4.86 206.38-3.66 206.03-2.49L206.03-2.49Q205.64-1.9 205.62-1.46 205.6-1.03 205.55-0.59 205.5-0.15 205.38 0.24 205.25 0.63 204.96 0.78L204.96 0.78Q204.96 1.17 204.79 1.37 204.62 1.56 204.52 1.81L204.52 1.81Q204.13 1.81 203.72 1.46 203.3 1.12 202.96 0.83L202.96 0.83Q202.71 0.44 202.52-0.02 202.32-0.49 202.23-0.93L202.23-0.93Q201.79-2.93 201.3-4.88 200.81-6.84 200.32-8.79L200.32-8.79Q200.32-8.94 200.25-9.28 200.18-9.62 200.08-10.01 199.98-10.4 199.91-10.69 199.83-10.99 199.78-11.08L199.78-11.08Q199.49-12.94 199.03-14.77 198.56-16.6 197.88-18.31L197.88-18.31Q197.88-18.6 197.78-18.9 197.69-19.19 197.69-19.48L197.69-19.48Q197.59-19.68 197.54-19.97 197.49-20.26 197.29-20.36L197.29-20.36Q197.05-20.36 197.03-20.07 197-19.78 197-19.53L197-19.53Q196.66-18.41 196.46-17.68 196.27-16.94 196.22-16.21L196.22-16.21Q195.93-15.67 195.93-14.94L195.93-14.94Q195.78-14.7 195.73-14.36 195.68-14.01 195.59-13.72L195.59-13.72Q194.76-10.6 193.83-7.76L193.83-7.76Q193.73-7.42 193.68-7.06 193.63-6.69 193.53-6.3L193.53-6.3Q193.24-5.03 193.05-3.81 192.85-2.59 192.66-1.32L192.66-1.32Q192.56-0.88 192.46-0.73 192.36-0.59 192.27-0.54 192.17-0.49 192.09-0.46 192.02-0.44 192.02-0.29L192.02-0.29Q191.78 0.1 191.87 0.2 191.97 0.29 191.97 0.39L191.97 0.39Q191.97 0.49 191.7 0.51 191.44 0.54 191.34 0.54L191.34 0.54Q190.95 0.39 190.73 0.59 190.51 0.78 190.36 0.78L190.36 0.78Q190.21 0.54 190.02 0.37 189.82 0.2 189.73 0.29L189.73 0.29Q189.24 0.05 189.12 0 188.99-0.05 188.9-0.15L188.9-0.15Q188.8-0.78 188.53-1.39 188.26-2 188.07-2.59L188.07-2.59Q187.87-3.27 187.77-3.98 187.68-4.69 187.53-5.42L187.53-5.42Q187.43-5.76 187.26-6.25 187.09-6.74 187.09-7.03L187.09-7.03Q186.99-7.62 186.97-7.81 186.94-8.01 186.85-8.15L186.85-8.15Q186.85-8.94 186.5-9.94 186.16-10.94 186.02-11.77L186.02-11.77Q185.48-14.6 184.84-17.14L184.84-17.14Q184.75-17.53 184.6-17.87 184.45-18.21 184.31-18.6L184.31-18.6Q184.06-19.34 183.87-20.09 183.67-20.85 183.43-21.63L183.43-21.63Q183.23-22.27 183.06-22.88 182.89-23.49 182.69-24.17L182.69-24.17Q182.6-24.46 182.45-24.76 182.3-25.05 182.16-25.39L182.16-25.39Q181.96-26.07 181.82-26.68 181.67-27.29 181.47-27.88L181.47-27.88Q181.08-29.2 180.67-30.49 180.25-31.79 179.86-33.11L179.86-33.11Q179.86-33.45 179.81-33.62 179.77-33.79 179.81-34.03L179.81-34.03Q179.72-34.23 179.69-34.47 179.67-34.72 179.67-34.96L179.67-34.96 179.67-35.64Q179.91-35.74 180.45-35.91 180.99-36.08 181.23-36.08L181.23-36.08Q181.86-36.04 182.16-36.08 182.45-36.13 182.65-36.33L182.65-36.33Q182.79-36.33 182.91-36.28 183.04-36.23 183.18-36.23L183.18-36.23Q183.77-36.38 183.87-36.28L183.87-36.28Q184.06-36.33 184.16-36.45 184.26-36.57 184.5-36.57L184.5-36.57Q184.6-36.57 184.75-36.33 184.89-36.08 184.99-35.99L184.99-35.99Q185.09-35.74 185.19-35.52 185.28-35.3 185.38-35.06L185.38-35.06Q185.67-34.33 185.89-33.4 186.11-32.47 186.41-31.64L186.41-31.64Q186.65-31.1 186.8-30.49 186.94-29.88 187.14-29.3L187.14-29.3Q187.24-29.05 187.33-28.81 187.43-28.56 187.53-28.32L187.53-28.32Q187.68-27.73 187.85-27.22 188.02-26.71 188.16-26.17L188.16-26.17Q188.75-24.46 189.26-22.73 189.77-21 190.17-19.29L190.17-19.29Q190.26-18.8 190.41-18.16 190.56-17.53 190.85-17.14L190.85-17.14Q191.04-17.29 191.12-17.68 191.19-18.07 191.29-18.31L191.29-18.31Q191.39-18.6 191.46-18.9 191.53-19.19 191.63-19.48L191.63-19.48Q191.78-20.17 191.92-20.78 192.07-21.39 192.27-22.02L192.27-22.02Q192.51-23.1 192.75-24.19 193-25.29 193.29-26.42L193.29-26.42Q193.49-27.1 193.68-27.83 193.88-28.56 194.07-29.25L194.07-29.25Q194.17-29.59 194.24-29.93 194.32-30.27 194.41-30.66L194.41-30.66Q194.56-31.05 194.73-31.45 194.9-31.84 195-32.23L195-32.23Q195.34-33.2 195.63-34.2 195.93-35.21 196.37-36.08L196.37-36.08Q196.46-36.18 196.56-36.25 196.66-36.33 196.81-36.43L196.81-36.43Q197.25-36.04 197.39-35.82 197.54-35.6 197.88-35.6L197.88-35.6Q198.08-35.45 198.15-35.23 198.22-35.01 198.52-35.06L198.52-35.06Q198.66-34.96 198.73-34.79 198.81-34.62 199-34.52L199-34.52Q199.2-34.08 199.25-34.13 199.3-34.18 199.44-34.13L199.44-34.13Q199.54-33.98 200-33.79 200.47-33.59 200.66-33.5L200.66-33.5Q200.66-33.3 200.74-33.15 200.81-33.01 200.81-32.81L200.81-32.81Q200.81-32.57 200.64-31.98 200.47-31.4 200.37-31.05L200.37-31.05Q200.61-30.96 200.71-30.98 200.81-31.01 200.91-31.01L200.91-31.01Q201.4-30.18 201.52-29.17 201.64-28.17 201.74-27.34L201.74-27.34Q201.84-26.95 201.91-26.59 201.98-26.22 202.08-25.83L202.08-25.83Q202.32-24.85 202.54-23.9 202.76-22.95 203.01-21.97L203.01-21.97Q203.01-21.73 203.2-21.44L203.2-21.44Q203.2-21.14 203.37-20.48 203.54-19.82 203.74-19.12 203.94-18.41 204.18-17.77 204.42-17.14 204.57-16.85L204.57-16.85Q204.81-16.99 204.86-17.53 204.91-18.07 205.11-18.31L205.11-18.31Q205.69-20.9 206.35-23.44 207.01-25.98 207.69-28.61L207.69-28.61Q208.13-30.37 208.6-31.98 209.06-33.59 209.7-35.3L209.7-35.3Q209.79-35.5 209.79-35.89L209.79-35.89Q210.38-36.04 210.62-35.79L210.62-35.79ZM228-37.01L228.1-36.96Q228.35-36.08 228.59-35.23 228.83-34.38 229.18-33.54L229.18-33.54Q229.91-33.45 230.08-33.4 230.25-33.35 230.5-33.25L230.5-33.25Q231.03-31.98 231.15-30.54 231.28-29.1 231.52-27.73L231.52-27.73Q232.45-26.51 232.86-25.12 233.28-23.73 233.82-22.31L233.82-22.31Q233.96-21.83 234.01-21.7 234.06-21.58 234.06-21.48L234.06-21.48Q234.35-20.65 234.65-19.78 234.94-18.9 235.28-18.07L235.28-18.07Q235.43-17.63 235.6-17.21 235.77-16.8 235.92-16.41L235.92-16.41Q236.06-15.92 236.18-15.41 236.31-14.89 236.45-14.4L236.45-14.4Q236.79-13.43 237.18-12.45 237.58-11.47 237.97-10.5L237.97-10.5Q238.11-10.16 238.53-8.98 238.94-7.81 239.38-6.52 239.82-5.22 240.19-4.13 240.55-3.03 240.55-2.78L240.55-2.78Q240.55-2.39 240.63-1.98 240.7-1.56 240.75-1.12L240.75-1.12Q240.55-0.63 240.26-0.59 239.97-0.54 239.72-0.63L239.72-0.63Q239.48-0.54 239.26-0.44 239.04-0.34 238.84-0.24L238.84-0.24Q238.7-0.2 238.6-0.1 238.5 0 238.36 0L238.36 0Q237.77 0 237.6 0.12 237.43 0.24 237.09 0.24L237.09 0.24Q236.65 0.1 236.53 0.22 236.4 0.34 236.31 0.39L236.31 0.39Q236.11 0.49 235.87 0.49 235.62 0.49 235.38 0.54L235.38 0.54Q235.28 0.34 235.21 0.15 235.13-0.05 234.99-0.29L234.99-0.29Q234.45-1.07 234.23-1.81 234.01-2.54 233.86-2.98L233.86-2.98Q233.62-3.52 233.45-4.05 233.28-4.59 233.03-5.13L233.03-5.13Q232.74-5.03 232.5-4.91 232.25-4.79 232.11-4.59L232.11-4.59Q231.52-4.59 231.52-4.44 231.52-4.3 231.42-4.15L231.42-4.15Q231.13-4.05 230.96-3.96 230.79-3.86 230.4-3.91L230.4-3.91Q230.15-3.66 229.91-3.49 229.67-3.32 229.27-3.27L229.27-3.27Q228.88-2.88 228.47-2.61 228.05-2.34 227.52-2.49L227.52-2.49Q226.83-2.34 226.15-2.22 225.47-2.1 224.78-2.1L224.78-2.1Q224-2.34 223.81-2.54 223.61-2.73 223.22-2.73L223.22-2.73Q223.27-3.42 222.93-3.66L222.93-3.66Q222.93-3.81 222.95-4.13 222.98-4.44 223.07-4.54L223.07-4.54Q223.71-4.83 223.81-5.18 223.9-5.52 224.34-5.62L224.34-5.62Q224.44-5.81 224.56-5.98 224.68-6.15 224.78-6.35L224.78-6.35Q225.03-6.45 225.2-6.49 225.37-6.54 225.47-6.79L225.47-6.79Q225.71-6.79 226.2-7.1 226.69-7.42 226.83-7.62L226.83-7.62Q227.22-7.76 227.32-7.89 227.42-8.01 227.57-8.11L227.57-8.11Q228.05-8.06 228.2-8.2L228.2-8.2Q228.59-8.01 229.08-8.01L229.08-8.01Q229.27-8.01 229.42-8.03 229.57-8.06 229.76-8.06L229.76-8.06Q230.15-8.45 230.76-8.57 231.37-8.69 231.76-9.08L231.76-9.08Q231.62-9.47 231.52-10.03 231.42-10.6 231.18-10.94L231.18-10.94Q231.08-11.57 230.86-12.16 230.64-12.74 230.5-13.28L230.5-13.28Q229.96-15.33 229.23-17.29 228.49-19.24 228-21.29L228-21.29Q227.91-21.53 227.79-21.8 227.66-22.07 227.57-22.31L227.57-22.31Q227.32-21.73 227.32-21.66 227.32-21.58 227.22-21.48L227.22-21.48Q227.17-21.24 227.13-21.07 227.08-20.9 226.98-20.65L226.98-20.65Q226.83-20.26 226.71-19.8 226.59-19.34 226.49-18.95L226.49-18.95Q226.25-18.12 226.05-17.21 225.86-16.31 225.61-15.43L225.61-15.43Q225.12-13.92 224.61-12.43 224.1-10.94 223.61-9.42L223.61-9.42Q223.51-8.74 223.39-8.37 223.27-8.01 223.15-7.64 223.02-7.28 222.95-6.93 222.88-6.59 222.88-6.4L222.88-6.4Q222.19-4.83 221.73-3.22 221.27-1.61 220.58-0.1L220.58-0.1Q220.39 0 220.24 0.15 220.09 0.29 219.9 0.29L219.9 0.29Q219.51 0.29 219.48 0.1 219.46-0.1 219.26-0.1L219.26-0.1Q219.07-0.1 218.92-0.02 218.78 0.05 218.63 0.15L218.63 0.15Q218.39 0.05 218.07 0.02 217.75 0 217.6-0.2L217.6-0.2Q217.26 0.05 216.92 0.05L216.92 0.05Q216.53 0.05 216.14-0.2L216.14-0.2Q215.85-0.1 215.55-0.1L215.55-0.1Q215.41-0.1 215.21-0.15 215.02-0.2 214.92-0.29L214.92-0.29Q214.87-0.49 214.87-0.68 214.87-0.88 214.87-1.12L214.87-1.12Q214.87-1.61 214.77-1.86L214.77-1.86Q215.65-4.35 216.48-6.91 217.31-9.47 218.14-12.11L218.14-12.11Q218.58-13.33 219-14.5 219.41-15.67 219.8-16.89L219.8-16.89Q220-17.58 220.14-18.19 220.29-18.8 220.53-19.38L220.53-19.38Q220.92-20.65 221.34-21.95 221.75-23.24 222.1-24.51L222.1-24.51Q222.29-24.66 222.34-24.85 222.39-25.05 222.49-25.29L222.49-25.29 222.44-25.93Q222.78-26.42 222.9-26.78 223.02-27.15 223.07-27.54L223.07-27.54Q223.32-28.13 223.51-28.81 223.71-29.49 223.81-30.08L223.81-30.08Q223.9-30.86 223.93-31.86 223.95-32.86 224.2-33.54L224.2-33.54Q224.29-33.74 224.37-33.81 224.44-33.89 224.44-34.13L224.44-34.13Q224.54-34.23 224.66-34.35 224.78-34.47 224.83-34.62L224.83-34.62Q225.08-35.01 225-35.3 224.93-35.6 224.93-35.94L224.93-35.94Q225.37-36.18 225.32-36.38 225.27-36.57 225.27-36.77L225.27-36.77Q225.27-37.01 225.59-37.23 225.91-37.45 226-37.7L226-37.7Q226.3-37.65 226.59-37.62 226.88-37.6 227.17-37.65L227.17-37.65Q227.52-37.01 228-37.01L228-37.01ZM247.44-35.5L247.44-35.5Q247.63-35.55 247.78-35.64 247.92-35.74 248.12-35.74L248.12-35.74Q248.27-35.69 248.34-35.55 248.41-35.4 248.56-35.3L248.56-35.3Q248.71-35.4 248.83-35.5 248.95-35.6 249.1-35.64L249.1-35.64Q249.58-35.5 249.63-35.16L249.63-35.16Q249.88-35.06 250.07-34.94 250.27-34.81 250.51-34.77L250.51-34.77Q250.61-34.57 250.76-34.47 250.9-34.38 251.1-34.18L251.1-34.18Q251.59-34.08 252.39-33.64 253.2-33.2 253.69-32.96L253.69-32.96Q254.17-32.71 254.66-32.47 255.15-32.23 255.59-31.93L255.59-31.93Q256.03-31.69 256.47-31.37 256.91-31.05 257.4-30.86L257.4-30.86Q257.84-30.32 258.52-30.18 259.2-30.03 259.74-29.64L259.74-29.64Q260.18-29.39 260.57-29.13 260.96-28.86 261.35-28.61L261.35-28.61Q261.5-28.37 261.72-28.22 261.94-28.08 262.13-27.83L262.13-27.83Q263.11-27.29 263.26-27L263.26-27Q263.4-26.9 263.7-26.71 263.99-26.51 264.28-26.29 264.57-26.07 264.82-25.85 265.06-25.63 265.11-25.44L265.11-25.44Q264.92-25 264.92-24.73 264.92-24.46 264.72-24.27L264.72-24.27Q265.01-23.88 265.01-23.54L265.01-23.54Q264.77-22.95 264.18-22.56L264.18-22.56Q264.04-22.17 263.72-21.95 263.4-21.73 263.31-21.34L263.31-21.34Q262.91-21.09 262.84-20.95 262.77-20.8 262.67-20.65L262.67-20.65Q261.74-19.68 260.94-18.97 260.13-18.26 259.45-17.43L259.45-17.43Q258.96-17.19 258.62-16.82 258.28-16.46 257.98-16.02L257.98-16.02Q257.59-15.63 257.23-15.26 256.86-14.89 256.47-14.55L256.47-14.55Q256.37-14.36 256.15-14.23 255.93-14.11 255.83-13.87L255.83-13.87Q255.3-13.62 254.96-13.18 254.61-12.74 254.13-12.45L254.13-12.45 253.78-11.96Q253.64-11.87 253.37-11.65 253.1-11.43 252.83-11.16 252.56-10.89 252.37-10.64 252.17-10.4 252.12-10.25L252.12-10.25Q251.98-10.21 251.66-9.96 251.34-9.72 251.02-9.42 250.71-9.13 250.44-8.84 250.17-8.54 250.12-8.45L250.12-8.45 249.63-8.11Q249.68-6.79 249.71-5.44 249.73-4.1 249.73-2.78L249.73-2.78 249.73-1.12 249.39-0.68Q249.14-0.68 249-0.78 248.85-0.88 248.66-0.88L248.66-0.88Q248.46-0.88 248.29-0.68 248.12-0.49 247.97-0.39L247.97-0.39Q247.63-0.34 247.41-0.22 247.19-0.1 246.95 0L246.95 0Q246.65-0.15 246.36-0.15L246.36-0.15Q245.73 0 245.75-0.1 245.78-0.2 245.53-0.2L245.53-0.2Q245.14 0.2 245.04 0.2L245.04 0.2Q244.85 0.2 244.68 0.24 244.51 0.29 244.31 0.29L244.31 0.29Q244.12-0.1 243.99-0.51 243.87-0.93 243.53-1.32L243.53-1.32Q243.68-1.81 243.48-2L243.48-2Q243.77-2.54 243.73-3.22 243.68-3.91 243.68-4.49L243.68-4.49Q243.68-4.83 243.7-5.15 243.73-5.47 243.73-5.76L243.73-5.76Q243.73-6.35 243.63-6.96 243.53-7.57 243.53-8.2L243.53-8.2Q243.53-9.67 243.63-11.16 243.73-12.65 243.73-14.11L243.73-14.11Q243.73-14.94 243.65-15.82 243.58-16.7 243.58-17.53L243.58-17.53Q243.58-18.07 243.63-18.53 243.68-18.99 243.73-19.43L243.73-19.43Q243.73-21.68 243.8-23.75 243.87-25.83 243.87-27.88L243.87-27.88Q243.87-28.56 243.85-29.17 243.82-29.79 243.82-30.47L243.82-30.47Q243.82-30.81 243.87-31.15 243.92-31.49 243.92-31.84L243.92-31.84Q244.07-33.35 244.07-34.86L244.07-34.86 244.02-35.64Q244.21-35.94 244.6-35.94L244.6-35.94Q245.14-35.94 245.43-35.6L245.43-35.6Q245.78-35.64 246.09-35.72 246.41-35.79 246.7-35.79L246.7-35.79Q247.14-35.79 247.44-35.5ZM250.41-27.88L250.32-27.73Q250.32-27.49 250.27-27.37 250.22-27.25 250.17-27.15L250.17-27.15Q250.17-27 250.19-26.83 250.22-26.66 250.22-26.46L250.22-26.46Q250.22-25.34 250.19-24.24 250.17-23.14 250.17-22.07L250.17-22.07 250.07-19.48Q250.07-19.24 250.12-18.95 250.17-18.65 250.17-18.41L250.17-18.41Q250.17-18.16 250.12-17.92 250.07-17.68 250.07-17.43L250.07-17.43Q250.07-16.8 250.22-16.16L250.22-16.16Q250.46-16.26 250.56-16.48 250.66-16.7 250.81-16.85L250.81-16.85Q251.93-17.87 252.9-18.99 253.88-20.12 254.91-21.24L254.91-21.24Q255.79-22.17 256.42-22.75 257.06-23.34 257.4-24.17L257.4-24.17Q256.57-24.71 255.69-25.27 254.81-25.83 253.83-26.22L253.83-26.22Q253.78-26.32 253.56-26.46 253.34-26.61 253.1-26.73 252.86-26.86 252.61-26.95 252.37-27.05 252.27-27.05L252.27-27.05Q251.83-27.44 251.34-27.54L251.34-27.54Q251-27.54 250.76-27.66 250.51-27.78 250.41-27.88L250.41-27.88ZM275.56-33.2L275.56-33.2Q275.56-32.76 275.27-32.54 274.97-32.32 274.73-31.98L274.73-31.98Q274.24-31.54 273.87-31.08 273.51-30.62 273.02-30.18L273.02-30.18Q272.82-29.98 272.48-29.66 272.14-29.35 271.77-29.03 271.41-28.71 271.04-28.47 270.68-28.22 270.43-28.22L270.43-28.22Q270.04-28.22 269.43-28.49 268.82-28.76 268.38-28.86L268.38-28.86Q268.04-28.91 267.77-28.93 267.5-28.96 267.26-29.2L267.26-29.2Q266.38-29.39 266.13-29.81 265.89-30.22 265.6-30.66L265.6-30.66Q265.6-30.86 265.74-30.91 265.89-30.96 265.99-31.1L265.99-31.1Q266.48-31.74 266.82-32.15 267.16-32.57 267.6-33.01L267.6-33.01Q268.43-33.74 269.19-34.52 269.94-35.3 270.77-35.99L270.77-35.99Q271.16-36.04 271.36-36.28 271.55-36.52 271.95-36.52L271.95-36.52Q272.34-36.52 272.6-36.28 272.87-36.04 273.09-35.72 273.31-35.4 273.53-35.08 273.75-34.77 274.04-34.62L274.04-34.62Q274.39-34.38 274.97-33.98 275.56-33.59 275.56-33.2ZM268.87-24.12L268.87-24.12Q269.21-23.93 269.38-23.61 269.55-23.29 269.89-23.14L269.89-23.14Q270.19-23 270.53-23 270.87-23 271.12-22.9L271.12-22.9Q271.31-22.8 271.41-22.66 271.51-22.51 271.6-22.36L271.6-22.36Q271.9-22.12 272.51-21.92 273.12-21.73 273.31-21.48L273.31-21.48Q273.65-21.04 273.83-20.36 274-19.68 274.09-18.92 274.19-18.16 274.24-17.41 274.29-16.65 274.39-16.11L274.39-16.11Q274.48-14.99 274.63-13.89 274.78-12.79 274.78-11.67L274.78-11.67Q274.78-10.55 274.68-9.38 274.58-8.2 274.58-7.08L274.58-7.08Q274.58-6.49 274.56-5.62 274.53-4.74 274.14-4.25L274.14-4.25Q274.09-4.05 274.09-3.56L274.09-3.56 274.09-2Q274.09-1.71 274.14-1.42 274.19-1.12 274.19-0.78L274.19-0.78Q274.19-0.24 273.9 0L273.9 0Q273.75-0.05 273.58-0.05 273.41-0.05 273.26-0.05L273.26-0.05Q272.73-0.05 272.48 0.15L272.48 0.15Q271.95 0.1 271.46 0.05 270.97 0 270.43 0L270.43 0Q269.6 0 268.62 0.24L268.62 0.24Q268.43-0.24 268.45-0.78 268.48-1.32 268.23-1.76L268.23-1.76Q268.19-1.9 268.16-2.03 268.14-2.15 268.14-2.29L268.14-2.29Q268.28-2.88 268.28-3.1 268.28-3.32 268.28-3.56L268.28-3.56Q268.28-4.25 268.23-4.96 268.19-5.66 268.28-6.35L268.28-6.35Q268.28-6.59 268.36-6.79 268.43-6.98 268.43-7.23L268.43-7.23Q268.43-7.47 268.33-7.57 268.23-7.67 268.23-7.81L268.23-7.81Q268.23-7.96 268.26-8.3 268.28-8.64 268.38-8.74L268.38-8.74Q268.38-9.13 268.41-9.5 268.43-9.86 268.43-10.21L268.43-10.21Q268.43-10.99 268.38-11.77 268.33-12.55 268.33-13.28L268.33-13.28Q268.33-13.62 268.28-13.72 268.23-13.82 268.19-13.87 268.14-13.92 268.04-13.94 267.94-13.96 267.89-14.11L267.89-14.11Q268.09-16.26 267.75-18.41 267.4-20.56 267.4-22.75L267.4-22.75Q267.4-23.1 267.5-23.27 267.6-23.44 267.75-23.54 267.89-23.63 268.01-23.75 268.14-23.88 268.19-24.12L268.19-24.12Q268.58-24.02 268.87-24.12Z" opacity="1" transform="matrix(1,0,0,1,0,0)" fill="white" class="slogan-text-1" id="SvgjsPath1094"></path></svg></g></svg></g></svg></g></svg></g><g transform="matrix(1,0,0,1,0,28.416472460961728)"><svg viewBox="0 0 162.04923129230772 187.56181538303395" height="187.56181538303395" width="162.04923129230772"><g><svg xmlns="http://www.w3.org/2000/svg" xmlns:xlink="http://www.w3.org/1999/xlink" version="1.1" x="0" y="0" viewBox="11.121000289916992 5 77.75799560546875 90" enable-background="new 0 0 100 100" xml:space="preserve" height="187.56181538303395" width="162.04923129230772" class="icon-icon-0" data-fill-palette-color="accent" id="SvgjsSvg1093"></svg></g></svg></g></svg></g><defs><mask></mask></defs></svg></g></mask><linearGradient x1="0" x2="1" y1="0.5" y2="0.5" id="f52f9974-519c-4263-b920-7607e03db669"><stop stop-color="#f00b51" offset="0"></stop><stop stop-color="#730062" offset="1"></stop></linearGradient><rect width="389.412353515625" height="200" fill="url(#f52f9974-519c-4263-b920-7607e03db669)" mask="url(#4d06edcb-c109-43c7-ac85-b83f2cbe3630)" data-fill-palette-color="secondary"></rect><mask id="ab5a6016-c46b-4e44-b50e-d45c42e0d5f3"><g id="SvgjsG1111"><svg viewBox="0 0 389.4123510992353 200" height="200" width="389.4123510992353"><g><svg viewBox="0 0 475.85169103343765 244.3947603049574" height="200" width="389.4123510992353"><g></g><g transform="matrix(1,0,0,1,213.63610641805295,0.6079471649376984)"><svg viewBox="0 0 262.21558461538467 243.178865975082" height="243.178865975082" width="262.21558461538467"><g id="SvgjsG1109"><svg viewBox="0 0 262.21558461538467 243.178865975082" height="243.178865975082" width="262.21558461538467" id="SvgjsSvg1108"><g><svg viewBox="0 0 262.21558461538467 198.764" height="198.764" width="262.21558461538467"><g transform="matrix(1,0,0,1,0,0)"><svg width="262.21558461538467" viewBox="1.0999996662139893 -35 102.9000015258789 74.5" height="198.764" data-palette-color="#ffffff"><svg></svg><svg></svg><g class="wordmark-text-0" data-fill-palette-color="primary" id="SvgjsG1107"></g></svg></g></svg></g><g transform="matrix(1,0,0,1,0,220.42095849107693)"><svg viewBox="0 0 153.94676972769233 22.757907484005077" height="22.757907484005077" width="153.94676972769233"><g transform="matrix(1,0,0,1,0,0)"><svg width="153.94676972769233" viewBox="2.9800000190734863 -37.70000076293945 272.5799865722656 40.30666732788086" height="22.757907484005077" data-palette-color="url(#f52f9974-519c-4263-b920-7607e03db669)"></svg></g></svg></g></svg></g></svg></g><g transform="matrix(1,0,0,1,0,28.416472460961728)"><svg viewBox="0 0 162.04923129230772 187.56181538303395" height="187.56181538303395" width="162.04923129230772"><g><svg xmlns="http://www.w3.org/2000/svg" xmlns:xlink="http://www.w3.org/1999/xlink" version="1.1" x="0" y="0" viewBox="11.121000289916992 5 77.75799560546875 90" enable-background="new 0 0 100 100" xml:space="preserve" height="187.56181538303395" width="162.04923129230772" class="icon-icon-0" data-fill-palette-color="accent" id="SvgjsSvg1106"><path d="M51.617 44.846c-8.524 8.524-8.524 22.346 0 30.869 8.523 8.525 22.344 8.525 30.869 0 8.524-8.522 8.524-22.345 0-30.869C73.961 36.321 60.143 36.321 51.617 44.846zM81.129 74.469c-0.371 0.37-0.759 0.704-1.147 1.038 6.732-7.854 6.398-19.681-1.038-27.118-7.437-7.438-19.265-7.772-27.117-1.038 0.335-0.39 0.669-0.779 1.037-1.147 7.807-7.806 20.459-7.806 28.266 0C88.931 54.008 88.931 66.664 81.129 74.469z" fill="white"></path><path d="M73.592 8.582L14.228 5l7.164 26.546 37.918-1.816 10.706 7.113-3.215-7.473 4.4-0.212L73.592 8.582zM33.525 23.226c-1.377 0-2.494-1.117-2.494-2.494s1.117-2.494 2.494-2.494 2.494 1.117 2.494 2.494S34.902 23.226 33.525 23.226zM45.161 23.226c-1.38 0-2.497-1.117-2.497-2.494s1.117-2.494 2.497-2.494c1.375 0 2.492 1.117 2.492 2.494S46.537 23.226 45.161 23.226zM56.793 23.226c-1.378 0-2.494-1.117-2.494-2.494s1.116-2.494 2.494-2.494 2.494 1.117 2.494 2.494S58.171 23.226 56.793 23.226z" fill="white"></path><path d="M47.647 76.66l-3.342-0.16 1.159-5.367-6.848 5.092-22.057-1.38L11.121 95l38.339-2.721L47.647 76.66zM23.56 86.706c-1.181 0-2.14-0.959-2.14-2.141s0.959-2.139 2.14-2.139c1.184 0 2.141 0.957 2.141 2.139S24.743 86.706 23.56 86.706zM31.253 86.706c-1.183 0-2.14-0.959-2.14-2.141s0.957-2.139 2.14-2.139c1.182 0 2.139 0.957 2.139 2.139S32.435 86.706 31.253 86.706zM38.944 86.706c-1.181 0-2.14-0.959-2.14-2.141s0.959-2.139 2.14-2.139c1.182 0 2.138 0.957 2.138 2.139S40.126 86.706 38.944 86.706z" fill="white"></path></svg></g></svg></g></svg></g><defs><mask></mask></defs><mask><g id="SvgjsG1105"><svg viewBox="0 0 389.4123510992353 200" height="200" width="389.4123510992353"><g><svg viewBox="0 0 475.85169103343765 244.3947603049574" height="200" width="389.4123510992353"><g></g><g transform="matrix(1,0,0,1,213.63610641805295,0.6079471649376984)"><svg viewBox="0 0 262.21558461538467 243.178865975082" height="243.178865975082" width="262.21558461538467"><g id="SvgjsG1104"><svg viewBox="0 0 262.21558461538467 243.178865975082" height="243.178865975082" width="262.21558461538467" id="SvgjsSvg1103"><g><svg viewBox="0 0 262.21558461538467 198.764" height="198.764" width="262.21558461538467"><g transform="matrix(1,0,0,1,0,0)"><svg width="262.21558461538467" viewBox="1.0999996662139893 -35 102.9000015258789 74.5" height="198.764" data-palette-color="#ffffff"><svg></svg><svg></svg><g class="wordmark-text-0" data-fill-palette-color="primary" id="SvgjsG1102"></g></svg></g></svg></g><g transform="matrix(1,0,0,1,0,220.42095849107693)"><svg viewBox="0 0 153.94676972769233 22.757907484005077" height="22.757907484005077" width="153.94676972769233"><g transform="matrix(1,0,0,1,0,0)"><svg width="153.94676972769233" viewBox="2.9800000190734863 -37.70000076293945 272.5799865722656 40.30666732788086" height="22.757907484005077" data-palette-color="url(#f52f9974-519c-4263-b920-7607e03db669)"></svg></g></svg></g></svg></g></svg></g><g transform="matrix(1,0,0,1,0,28.416472460961728)"><svg viewBox="0 0 162.04923129230772 187.56181538303395" height="187.56181538303395" width="162.04923129230772"><g><svg xmlns="http://www.w3.org/2000/svg" xmlns:xlink="http://www.w3.org/1999/xlink" version="1.1" x="0" y="0" viewBox="11.121000289916992 5 77.75799560546875 90" enable-background="new 0 0 100 100" xml:space="preserve" height="187.56181538303395" width="162.04923129230772" class="icon-icon-0" data-fill-palette-color="accent" id="SvgjsSvg1100"></svg></g></svg></g></svg></g><defs><mask></mask></defs></svg></g></mask></svg></g></mask><linearGradient x1="0" x2="1" y1="0.548" y2="0.55" id="808bccaa-6881-4c76-bba4-f85bb3f90a71"><stop stop-color="#ff6cab" offset="0"></stop><stop stop-color="#7366ff" offset="1"></stop></linearGradient><rect width="389.412353515625" height="200" fill="url(#808bccaa-6881-4c76-bba4-f85bb3f90a71)" mask="url(#ab5a6016-c46b-4e44-b50e-d45c42e0d5f3)" data-fill-palette-color="accent"></rect></svg><rect width="389.4123510992353" height="200" fill="none" stroke="none" visibility="hidden"></rect></g></svg></g></svg>